<?xml version="1.0" encoding="UTF-8"?>
<svg width="24px" height="24px" viewBox="0 0 24 24" version="1.1" xmlns="http://www.w3.org/2000/svg" xmlns:xlink="http://www.w3.org/1999/xlink">
    <title>PDF Document</title>
    <g id="PDF-Document" stroke="none" stroke-width="1" fill="none" fill-rule="evenodd">
        <polygon id="Path" points="0 0 24 0 24 24 0 24"></polygon>
        <path d="M14,0 L2,0 L2,24 L22,24 L22,7 L14,0 Z M20,22 L4,22 L4,2 L14,2 L14,7 L20,7 L20,22 Z" id="Shape" fill="#000000" fill-rule="nonzero"></path>
        <path d="M7.113,19 L7.113,16.14 L7.126,16.14 C8.738,16.023 9.882,15.048 9.882,12.994 L9.882,12.968 C9.882,10.836 8.673,9.9 6.944,9.9 L5.527,9.9 L5.527,19 L7.113,19 Z M7.126,14.671 L7.113,14.671 L7.113,11.369 L7.165,11.369 C7.854,11.369 8.296,11.863 8.296,13.02 L8.296,13.046 C8.296,14.151 7.789,14.632 7.126,14.671 Z M11.814,19 C13.842,19 14.999,17.531 14.999,14.606 L14.999,14.294 C14.999,11.369 13.842,9.9 11.814,9.9 L10.332,9.9 L10.332,19 L11.814,19 Z M11.983,17.544 L11.918,17.544 L11.918,11.356 L11.983,11.356 C12.737,11.356 13.387,12.019 13.387,14.294 L13.387,14.606 C13.387,16.881 12.737,17.544 11.983,17.544 Z M17.165,19 L17.165,15.204 L18.673,15.204 L18.673,13.696 L17.165,13.696 L17.165,11.408 L18.894,11.408 L18.894,9.9 L15.579,9.9 L15.579,19 L17.165,19 Z" id="PDF" fill="#000000" fill-rule="nonzero"></path>
    </g>
</svg>