<?xml version="1.0" encoding="UTF-8"?><svg x="0" y="0" viewBox="0 0 252.7 19.1" version="1.1" xmlns="http://www.w3.org/2000/svg"><path d="M6.49,15.51 L6.49,12.98 L2.948,12.98 L6.49,2.244 L6.49,0.11 L0.132,0.11 L0.132,2.64 L3.542,2.64 L-1.42108547e-14,13.376 L-1.42108547e-14,15.51 L6.49,15.51 Z M11.994,15.51 L11.994,0.11 L9.31,0.11 L9.31,15.51 L11.994,15.51 Z M17.74,15.51 L17.74,7.348 L20.578,15.51 L22.954,15.51 L22.954,0.11 L20.336,0.11 L20.336,7.898 L17.63,0.11 L15.122,0.11 L15.122,15.51 L17.74,15.51 Z M28.436,15.62 C30.548,15.62 32.242,14.014 32.242,11.594 L32.242,11.55 C32.242,9.79 31.78,8.844 29.668,6.402 C28.392,4.928 28.172,4.664 28.172,3.938 L28.172,3.894 C28.172,3.058 28.81,2.574 29.558,2.574 C30.262,2.574 30.768,2.794 31.604,3.278 L31.604,0.484 C30.944,0.154 30.306,-2.30926389e-14 29.228,-2.30926389e-14 C27.094,-2.30926389e-14 25.488,1.562 25.488,4.026 L25.488,4.07 C25.488,5.94 26.236,6.93 28.062,8.998 C29.338,10.45 29.558,10.978 29.558,11.682 L29.558,11.726 C29.558,12.672 28.898,13.046 28.128,13.046 C27.402,13.046 26.654,12.738 25.708,12.188 L25.708,14.982 C26.478,15.356 27.38,15.62 28.436,15.62 Z M40.65,15.51 L40.65,12.958 L37.372,12.958 L37.372,9.042 L40.21,9.042 L40.21,6.49 L37.372,6.49 L37.372,2.662 L40.584,2.662 L40.584,0.11 L34.688,0.11 L34.688,15.51 L40.65,15.51 Z M46.066,15.51 L46.066,7.348 L48.904,15.51 L51.28,15.51 L51.28,0.11 L48.662,0.11 L48.662,7.898 L45.956,0.11 L43.448,0.11 L43.448,15.51 L46.066,15.51 Z M54.188,19.074 C56.366,18.788 57.488,17.292 57.488,14.96 L57.488,12.452 L54.452,12.452 L54.452,15.51 L55.816,15.51 C55.926,16.478 55.596,17.644 53.968,17.996 L54.188,19.074 Z M71.862,15.51 L71.862,12.98 L68.32,12.98 L71.862,2.244 L71.862,0.11 L65.504,0.11 L65.504,2.64 L68.914,2.64 L65.372,13.376 L65.372,15.51 L71.862,15.51 Z M76.464,15.51 L76.948,12.452 L79.39,12.452 L79.896,15.51 L82.58,15.51 L79.654,0.066 L76.794,0.066 L73.868,15.51 L76.464,15.51 Z M78.994,10.032 L77.344,10.032 L78.18,4.95 L78.994,10.032 Z M87.578,15.51 L87.578,9.042 L89.91,9.042 L89.91,15.51 L92.594,15.51 L92.594,0.11 L89.91,0.11 L89.91,6.49 L87.578,6.49 L87.578,0.11 L84.894,0.11 L84.894,15.51 L87.578,15.51 Z M101.2,15.51 L101.2,12.958 L98.362,12.958 L98.362,0.11 L95.678,0.11 L95.678,15.51 L101.2,15.51 Z M109.74,15.51 L109.74,12.958 L106.462,12.958 L106.462,9.042 L109.3,9.042 L109.3,6.49 L106.462,6.49 L106.462,2.662 L109.674,2.662 L109.674,0.11 L103.778,0.11 L103.778,15.51 L109.74,15.51 Z M115.156,15.51 L115.156,7.348 L117.994,15.51 L120.37,15.51 L120.37,0.11 L117.752,0.11 L117.752,7.898 L115.046,0.11 L112.538,0.11 L112.538,15.51 L115.156,15.51 Z M132.236,15.708 C134.436,15.708 136.064,14.256 136.064,11.022 L136.064,0.11 L133.402,0.11 L133.402,11.286 C133.402,12.672 132.918,13.222 132.236,13.222 C131.554,13.222 131.07,12.672 131.07,11.286 L131.07,0.11 L128.408,0.11 L128.408,11.022 C128.408,14.256 130.036,15.708 132.236,15.708 Z M141.722,15.51 L141.722,7.348 L144.56,15.51 L146.936,15.51 L146.936,0.11 L144.318,0.11 L144.318,7.898 L141.612,0.11 L139.104,0.11 L139.104,15.51 L141.722,15.51 Z M152.528,15.51 C155.96,15.51 157.918,13.024 157.918,8.074 L157.918,7.546 C157.918,2.596 155.96,0.11 152.528,0.11 L150.02,0.11 L150.02,15.51 L152.528,15.51 Z M152.814,13.046 L152.704,13.046 L152.704,2.574 L152.814,2.574 C154.09,2.574 155.19,3.696 155.19,7.546 L155.19,8.074 C155.19,11.924 154.09,13.046 152.814,13.046 Z M170.488,15.554 L173.238,0.11 L170.598,0.11 L169.146,10.142 L167.694,0.11 L164.966,0.11 L167.716,15.554 L170.488,15.554 Z M181.514,15.51 L181.514,12.958 L178.236,12.958 L178.236,9.042 L181.074,9.042 L181.074,6.49 L178.236,6.49 L178.236,2.662 L181.448,2.662 L181.448,0.11 L175.552,0.11 L175.552,15.51 L181.514,15.51 Z M186.996,15.51 L186.996,10.142 L187.502,10.142 L187.502,10.142 L189.24,15.51 L192.1,15.51 L190.032,9.262 C191.044,8.492 191.836,7.216 191.836,5.214 L191.836,5.016 C191.836,1.562 189.834,0.11 187.084,0.11 L184.312,0.11 L184.312,15.51 L186.996,15.51 Z M187.128,7.722 L186.996,7.722 L186.996,2.618 L187.062,2.618 C188.228,2.618 189.152,3.124 189.152,5.06 L189.152,5.236 C189.152,7.04 188.294,7.722 187.128,7.722 Z M198.91,15.62 C199.944,15.62 200.736,15.378 201.704,14.96 L201.704,6.776 L197.942,6.776 L197.942,9.174 L199.262,9.174 L199.262,13.112 C199.13,13.134 199.108,13.134 199.02,13.134 C197.92,13.134 196.732,12.21 196.732,8.184 L196.732,7.436 C196.732,4.114 197.7,2.574 199.24,2.574 C199.944,2.574 200.538,2.838 201.198,3.234 L201.198,0.44 C200.648,0.176 199.966,-2.30926389e-14 199.152,-2.30926389e-14 C196.116,-2.30926389e-14 194.004,2.574 194.004,7.546 L194.004,8.074 C194.004,13.442 196.226,15.62 198.91,15.62 Z M210.2,15.51 L210.2,12.958 L207.362,12.958 L207.362,0.11 L204.678,0.11 L204.678,15.51 L210.2,15.51 Z M218.74,15.51 L218.74,12.958 L215.462,12.958 L215.462,9.042 L218.3,9.042 L218.3,6.49 L215.462,6.49 L215.462,2.662 L218.674,2.662 L218.674,0.11 L212.778,0.11 L212.778,15.51 L218.74,15.51 Z M224.266,15.51 L224.266,0.11 L221.582,0.11 L221.582,15.51 L224.266,15.51 Z M231.164,15.62 C231.934,15.62 232.528,15.51 233.144,15.158 L233.144,12.518 C232.594,12.848 232.066,13.002 231.648,13.002 C230.416,13.002 229.558,12.166 229.558,8.096 L229.558,7.524 C229.558,3.674 230.416,2.618 231.604,2.618 C232.11,2.618 232.55,2.794 233.1,3.124 L233.1,0.352 C232.528,0.088 232.088,-2.30926389e-14 231.34,-2.30926389e-14 C228.832,-2.30926389e-14 226.83,2.134 226.83,7.546 L226.83,8.074 C226.83,13.442 228.7,15.62 231.164,15.62 Z M238.67,15.51 L238.67,9.042 L241.002,9.042 L241.002,15.51 L243.686,15.51 L243.686,0.11 L241.002,0.11 L241.002,6.49 L238.67,6.49 L238.67,0.11 L235.986,0.11 L235.986,15.51 L238.67,15.51 Z M252.732,15.51 L252.732,12.958 L249.454,12.958 L249.454,9.042 L252.292,9.042 L252.292,6.49 L249.454,6.49 L249.454,2.662 L252.666,2.662 L252.666,0.11 L246.77,0.11 L246.77,15.51 L252.732,15.51 Z" fill="#1792D0" fill-rule="nonzero"></path></svg>
